<!-- Icon from Flowbite Icons by Themesberg - https://github.com/themesberg/flowbite-icons/blob/main/LICENSE -->

<svg xmlns="http://www.w3.org/2000/svg">
  <symbol id="github" viewBox="0 0 24 24">
    <path fill="currentColor" fill-rule="evenodd" d="M12.006 2a9.85 9.85 0 0 0-6.484 2.44a10.32 10.32 0 0 0-3.393 6.17a10.48 10.48 0 0 0 1.317 6.955a10.05 10.05 0 0 0 5.4 4.418c.504.095.683-.223.683-.494c0-.245-.01-1.052-.014-1.908c-2.78.62-3.366-1.21-3.366-1.21a2.7 2.7 0 0 0-1.11-1.5c-.907-.637.07-.621.07-.621c.317.044.62.163.885.346c.266.183.487.426.647.71c.135.253.318.476.538.655a2.08 2.08 0 0 0 2.37.196c.045-.52.27-1.006.635-1.37c-2.219-.259-4.554-1.138-4.554-5.07a4.02 4.02 0 0 1 1.031-2.75a3.77 3.77 0 0 1 .096-2.713s.839-.275 2.749 1.05a9.26 9.26 0 0 1 5.004 0c1.906-1.325 2.74-1.05 2.74-1.05c.37.858.406 1.828.101 2.713a4.02 4.02 0 0 1 1.029 2.75c0 3.939-2.339 4.805-4.564 5.058a2.47 2.47 0 0 1 .679 1.897c0 1.372-.012 2.477-.012 2.814c0 .272.18.592.687.492a10.05 10.05 0 0 0 5.388-4.421a10.47 10.47 0 0 0 1.313-6.948a10.32 10.32 0 0 0-3.39-6.165A9.85 9.85 0 0 0 12.007 2Z" clip-rule="evenodd" />
  </symbol>

  <symbol id="npm" viewBox="0 0 24 24">
    <path fill="currentColor" stroke="currentColor" stroke-linecap="round" stroke-linejoin="round" stroke-width="2" d="M12 3.87H4v16h8v-13h5v13h3v-16z" />
  </symbol>

  <symbol id="link" viewBox="0 0 24 24">
    <path fill="none" stroke="currentColor" stroke-linecap="round" stroke-linejoin="round" stroke-width="2" d="M13.2 9.8a3.4 3.4 0 0 0-4.8 0L5 13.2A3.4 3.4 0 0 0 9.8 18l.3-.3m-.3-4.5a3.4 3.4 0 0 0 4.8 0L18 9.8A3.4 3.4 0 0 0 13.2 5l-1 1" />
  </symbol>

  <symbol id="article" viewBox="0 0 24 24">
    <path fill="currentColor" fill-rule="evenodd" d="M14 4.182A4.14 4.14 0 0 1 16.9 3c1.087 0 2.13.425 2.899 1.182A4 4 0 0 1 21 7.037c0 1.068-.43 2.092-1.194 2.849L18.5 11.214l-5.8-5.71l1.287-1.31l.012-.012Zm-2.717 2.763L6.186 12.13l2.175 2.141l5.063-5.218zm-6.25 6.886l-1.98 5.849a.99.99 0 0 0 .245 1.026a1.03 1.03 0 0 0 1.043.242L10.282 19l-5.25-5.168Zm6.954 4.01l5.096-5.186l-2.218-2.183l-5.063 5.218l2.185 2.15Z" clip-rule="evenodd" />
  </symbol>

  <symbol id="merge" viewBox="0 0 24 24">
    <path fill="none" stroke="currentColor" stroke-linecap="round" stroke-linejoin="round" stroke-width="2" d="M8 8v8m0-8a2 2 0 1 0 0-4a2 2 0 0 0 0 4m0 8a2 2 0 1 0 0 4a2 2 0 0 0 0-4m6-2a2 2 0 1 1 4 0a2 2 0 0 1-4 0m0 0h-1a5 5 0 0 1-5-5v-.5"/>
  </symbol>
</svg>